<svg width="48" height="64" viewBox="0 0 48 64" fill="none" xmlns="http://www.w3.org/2000/svg">
<path d="M6.88328 6.93706C16.0604 -2.31235 30.9396 -2.31235 40.1167 6.93706C48.0279 14.9105 49.2646 27.3997 43.0731 36.7917L26.0424 62.6261C24.8348 64.458 22.1652 64.458 20.9576 62.6261L3.92686 36.7917C-2.26464 27.3997 -1.02787 14.9105 6.88328 6.93706Z" fill="#2C4F26"/>
<path d="M36.0027 15.513C35.9957 15.4592 35.9713 15.41 35.9286 15.3804L23.5977 7.02851C23.541 6.9905 23.4686 6.9905 23.4119 7.02851L17.0014 11.3704C16.9517 11.4038 16.9212 11.4622 16.9212 11.5252V16.0748C16.9212 16.1471 16.9962 16.1916 17.0538 16.1527L23.5035 11.7839L32.1847 17.664V30.9372H23.5567V26.2467C23.5567 23.0795 21.8976 21.4421 19.8373 20.9461C19.3715 20.8339 18.8847 20.7792 18.3919 20.7792C16.8287 20.7792 15.7689 21.2456 14.7247 22.2849V13.0792C14.7247 13.0068 14.6497 12.9633 14.5921 13.0013L11.0803 15.3748C11.0305 15.4082 11 15.4666 11 15.5296V34.8146C11 34.9156 11.0776 34.9981 11.1727 34.9981H14.5494C14.6445 34.9981 14.7221 34.9156 14.7221 34.8146L14.7247 27.6374C14.75 25.645 15.5918 24.2227 17.5867 24.3664V24.3683C19.0409 24.474 19.8346 25.3028 19.8346 27.7311V34.8164C19.8346 34.9175 19.9123 35 20.0074 35H35.8352C35.9303 35 36.0079 34.9175 36.0079 34.8164V15.5352C36.0079 15.5269 36.0036 15.5204 36.0027 15.513Z" fill="#DEED6A"/>
</svg>
